<svg width="1040" height="1000" viewBox="0 0 1040 1000" fill="none" xmlns="http://www.w3.org/2000/svg">
  <!-- 3 - Red -->
  <path d="M 59 64 L 545 64 L 545 239 C 545 239 500 239 450 239 C 450 239 490 264 510 300 C 530 336 520 410 520 410 C 520 540 430 650 280 710 L 135 795 L 59 710 L 209 625 C 149 600 99 545 99 470 C 99 385 154 325 224 300 L 59 300 Z M 280 300 C 280 300 320 320 344 365 C 368 410 344 470 299 500 C 254 530 234 515 234 515 L 234 385 C 234 385 240 300 280 300 Z" fill="#E63946"/>
  
  <!-- S - Cyan -->
  <path d="M 981 936 L 495 936 L 495 761 C 495 761 540 761 590 761 C 590 761 550 736 530 700 C 510 664 520 590 520 590 C 520 460 610 350 760 290 L 905 205 L 981 290 L 831 375 C 891 400 941 455 941 530 C 941 615 886 675 816 700 L 981 700 Z M 760 700 C 760 700 720 680 696 635 C 672 590 696 530 741 500 C 786 470 806 485 806 485 L 806 615 C 806 615 800 700 760 700 Z" fill="#5DC5CD"/>
  
  <!-- Navy interlocking wave -->
  <path d="M 520 150 C 470 200 420 250 370 300 C 370 300 320 350 320 400 C 320 450 370 500 420 550 C 470 600 520 650 520 650 C 520 650 570 600 620 550 C 670 500 720 450 720 400 C 720 350 670 300 620 250 C 570 200 520 150 520 150 Z" fill="#2D3561"/>
</svg>
