<svg width="32" height="32" viewBox="0 0 32 32" fill="none" xmlns="http://www.w3.org/2000/svg">
  <rect width="32" height="32" rx="4" fill="#2D3561"/>
  <path d="M 3 3 L 16 3 L 16 8 C 16 8 14 8 13 8 C 13 8 14 9 15 10 C 16 11 15 13 15 13 C 15 17 13 20 9 22 L 5 25 L 3 22 L 7 20 C 5 19 4 17 4 15 C 4 12 5 10 7 10 L 3 10 Z M 9 10 C 10 10 11 12 11 15 C 11 17 9 16 9 16 L 9 12 C 9 12 9 10 9 10 Z" fill="#E63946"/>
  <path d="M 29 29 L 16 29 L 16 24 C 16 24 18 24 19 24 C 19 24 18 23 17 22 C 16 21 17 19 17 19 C 17 15 19 12 23 10 L 27 7 L 29 10 L 25 12 C 27 13 28 15 28 17 C 28 20 27 22 25 22 L 29 22 Z M 23 22 C 22 22 21 20 21 17 C 21 15 23 16 23 16 L 23 20 C 23 20 23 22 23 22 Z" fill="#5DC5CD"/>
  <circle cx="16" cy="16" r="4" fill="#2D3561" opacity="0.3"/>
</svg>
